<?xml version="1.0" standalone="no"?>
<!DOCTYPE svg PUBLIC "-//W3C//DTD SVG 20010904//EN"
 "http://www.w3.org/TR/2001/REC-SVG-20010904/DTD/svg10.dtd">
<svg version="1.0" xmlns="http://www.w3.org/2000/svg"
 width="50pt" height="50pt" viewBox="0 0 512.000000 512.000000"
 preserveAspectRatio="xMidYMid meet">

<g transform="translate(0.000000,512.000000) scale(0.100000,-0.100000)" stroke="none">
<path d="M1670 4339 c-251 -15 -473 -77 -710 -200 -281 -146 -530 -379 -703
-661 -113 -183 -201 -428 -238 -663 -16 -103 -16 -407 0 -510 63 -401 232
-729 520 -1015 269 -266 578 -422 981 -496 87 -16 229 -18 1731 -21 l1636 -4
116 188 116 188 -1114 3 -1114 2 142 143 c170 169 251 280 347 472 81 163 119
270 156 450 24 115 28 153 28 325 1 208 -9 302 -51 460 -82 317 -222 565 -452
803 -364 376 -860 567 -1391 536z m337 -134 c629 -89 1143 -511 1351 -1110 99
-283 113 -642 37 -945 -77 -311 -262 -613 -509 -832 -592 -524 -1461 -559
-2096 -85 -291 217 -505 531 -605 888 -77 274 -77 604 0 878 143 508 513 920
995 1106 269 104 557 139 827 100z m918 -3115 c-26 -27 -35 -30 -93 -30 l-63
0 21 30 c20 29 25 30 93 30 l71 0 -29 -30z m300 0 c-26 -27 -35 -30 -93 -30
l-63 0 21 30 c20 29 25 30 93 30 l71 0 -29 -30z m313 0 c-21 -28 -26 -30 -92
-30 l-70 0 29 30 c26 27 35 30 92 30 l64 0 -23 -30z m300 0 c-20 -28 -26 -30
-91 -30 l-69 0 24 29 c21 28 28 30 91 30 l68 1 -23 -30z m290 1 c-21 -28 -28
-30 -91 -30 l-68 -1 23 30 c20 28 26 30 91 30 l69 0 -24 -29z m270 -1 c-20
-28 -26 -30 -91 -30 l-69 0 24 29 c21 28 28 30 91 30 l68 1 -23 -30z m300 1
c-21 -28 -28 -30 -91 -30 l-69 -1 24 29 c21 28 28 30 91 30 l69 1 -24 -29z
m300 0 c-21 -28 -28 -30 -91 -30 l-68 -1 23 30 c20 28 26 30 91 30 l69 0 -24
-29z m-1284 -78 c-9 -16 -28 -45 -42 -65 l-25 -38 -383 0 c-253 0 -384 3 -384
10 0 6 16 35 36 65 l37 55 390 0 389 0 -18 -27z m1090 0 c-9 -16 -28 -45 -42
-65 l-25 -38 -389 0 -390 0 18 28 c9 15 28 44 42 65 l25 37 389 0 390 0 -18
-27z m-2114 -140 c0 -5 -12 -20 -25 -35 -22 -26 -30 -28 -95 -28 l-71 0 28 35
c27 34 30 35 96 35 37 0 67 -3 67 -7z m320 0 c0 -4 -12 -20 -27 -35 -24 -25
-33 -28 -95 -28 l-69 0 27 35 c26 34 28 35 95 35 38 0 69 -3 69 -7z m319 -24
c-27 -39 -33 -41 -109 -37 l-63 3 27 33 c26 30 31 32 98 32 l69 0 -22 -31z
m315 -4 c-26 -34 -28 -35 -95 -35 -38 0 -69 3 -69 7 0 4 12 20 27 35 24 25 33
28 95 28 l69 0 -27 -35z m326 30 c0 -3 -10 -19 -22 -35 -21 -29 -25 -30 -95
-30 l-74 0 28 35 c27 34 30 35 96 35 37 0 67 -2 67 -5z m290 0 c0 -3 -10 -19
-22 -35 -21 -29 -25 -30 -95 -30 l-74 0 28 35 c27 34 30 35 96 35 37 0 67 -2
67 -5z m320 -2 c0 -5 -12 -20 -25 -35 -22 -26 -30 -28 -95 -28 l-71 0 28 35
c27 34 30 35 96 35 37 0 67 -3 67 -7z m320 0 c0 -5 -12 -20 -25 -35 -22 -26
-30 -28 -95 -28 l-71 0 27 35 c26 34 28 35 95 35 38 0 69 -3 69 -7z"/>
<path d="M1700 3969 c-104 -9 -282 -51 -317 -75 -22 -14 -28 -30 -23 -64 2
-16 163 -434 187 -488 20 -42 48 -48 128 -28 89 22 219 21 317 -4 70 -18 83
-19 102 -7 23 16 236 496 236 533 0 32 -31 53 -115 80 -152 48 -349 68 -515
53z"/>
<path d="M825 3579 c-182 -173 -309 -389 -367 -625 -24 -95 -19 -127 19 -142
33 -12 493 -82 539 -82 40 0 47 9 73 94 31 101 75 176 152 261 71 77 77 91 58
126 -18 35 -300 413 -321 432 -37 32 -62 21 -153 -64z"/>
<path d="M2515 3381 c-198 -247 -200 -253 -139 -312 77 -72 141 -188 178 -320
11 -40 22 -59 39 -66 17 -8 91 -3 295 21 337 39 323 32 298 163 -35 173 -126
375 -235 518 -25 33 -79 95 -121 138 -116 118 -102 124 -315 -142z"/>
<path d="M1747 2870 c-238 -60 -323 -353 -152 -525 119 -118 320 -118 439 1
119 119 119 320 1 439 -71 70 -197 107 -288 85z"/>
<path d="M714 2420 c-127 -15 -243 -30 -257 -34 -44 -11 -50 -36 -31 -129 49
-242 173 -471 351 -650 82 -82 111 -98 143 -76 24 17 344 417 353 442 9 25 -6
51 -67 118 -62 67 -118 170 -141 259 -9 36 -24 73 -32 83 -20 22 -34 21 -319
-13z"/>
<path d="M2564 2385 c-13 -8 -28 -39 -39 -77 -31 -111 -75 -186 -172 -290 -29
-31 -53 -65 -53 -75 0 -23 321 -458 350 -473 34 -18 57 -3 160 99 158 158 273
351 334 565 33 112 33 151 4 170 -17 11 -515 96 -559 96 -3 0 -14 -7 -25 -15z"/>
<path d="M1507 1813 c-8 -10 -64 -130 -123 -266 -131 -303 -131 -288 7 -334
146 -49 267 -66 439 -60 166 6 262 23 383 69 58 22 55 38 -49 306 -52 136
-102 258 -111 271 -17 26 -34 26 -173 1 -75 -14 -192 -7 -264 15 -64 20 -89
19 -109 -2z"/>
</g>
</svg>
